<?xml version="1.0" standalone="no"?>
<!DOCTYPE svg PUBLIC "-//W3C//DTD SVG 20010904//EN"
 "http://www.w3.org/TR/2001/REC-SVG-20010904/DTD/svg10.dtd">
<svg version="1.0" xmlns="http://www.w3.org/2000/svg"
 width="512.000000pt" height="512.000000pt" viewBox="0 0 512.000000 512.000000"
 preserveAspectRatio="xMidYMid meet">

<g transform="translate(0.000000,512.000000) scale(0.100000,-0.100000)"
fill="#000000" stroke="none">
<path d="M1378 4561 c-654 -218 -1188 -398 -1188 -401 0 -3 209 -75 465 -160
l465 -155 0 -283 0 -283 122 -79 c308 -202 631 -323 1003 -376 145 -21 456
-24 595 -6 387 51 719 173 1038 382 l122 79 0 283 0 283 466 155 c256 85 467
157 469 160 2 3 -531 184 -1183 401 l-1187 396 -1187 -396z m1275 -274 c98
-74 82 -219 -29 -272 -107 -50 -235 43 -221 161 13 121 155 184 250 111z"/>
<path d="M439 1637 l-276 -118 314 -667 c172 -367 318 -671 322 -675 10 -10
550 292 551 307 0 11 -419 858 -541 1092 l-94 180 -276 -119z"/>
</g>
</svg>
