<?xml version="1.0" standalone="no"?>
<!DOCTYPE svg PUBLIC "-//W3C//DTD SVG 20010904//EN"
 "http://www.w3.org/TR/2001/REC-SVG-20010904/DTD/svg10.dtd">
<svg version="1.0" xmlns="http://www.w3.org/2000/svg"
 width="512.000000pt" height="512.000000pt" viewBox="0 0 512.000000 512.000000"
 preserveAspectRatio="xMidYMid meet">

<g transform="translate(0.000000,512.000000) scale(0.100000,-0.100000)"
fill="#000000" stroke="none">
<path d="M2448 3073 l-318 -3 0 -110 c0 -108 -1 -111 -24 -120 -55 -21 -61
-92 -10 -125 28 -17 33 -27 38 -77 8 -69 37 -114 91 -142 34 -18 63 -21 202
-24 113 -3 163 -8 163 -16 0 -58 -50 -146 -107 -188 -24 -18 -31 -28 -20 -28
15 0 17 -16 17 -145 l0 -145 -743 0 -744 0 -21 -23 c-21 -23 -22 -30 -22 -290
l0 -267 75 0 75 0 0 215 0 215 690 0 690 0 0 -215 0 -215 75 0 75 0 0 215 0
215 695 0 695 0 0 -220 0 -220 -193 0 c-251 0 -237 11 -237 -188 l0 -142 395
-2 c217 -2 446 -3 508 -3 l112 0 3 105 c4 130 -4 186 -29 211 -17 17 -35 19
-214 19 l-195 0 0 270 0 271 -25 24 -24 25 -746 0 -745 0 0 140 0 140 38 19
c69 36 124 109 140 188 7 33 12 38 43 44 78 12 129 78 129 166 0 45 2 49 30
60 61 23 61 97 -1 131 l-31 17 5 108 5 107 -77 0 c-42 0 -92 2 -111 3 -19 2
-178 2 -352 0z"/>
<path d="M830 753 c-51 -19 -68 -85 -30 -123 19 -19 33 -20 216 -20 118 0 203
4 215 11 48 25 44 105 -7 128 -25 11 -364 15 -394 4z"/>
<path d="M2353 748 c-48 -24 -51 -103 -4 -127 12 -7 97 -11 215 -11 183 0 197
1 216 20 27 27 26 81 -1 106 -19 17 -40 19 -213 21 -121 1 -199 -2 -213 -9z"/>
<path d="M3893 750 c-46 -19 -57 -83 -20 -118 22 -21 32 -22 221 -22 196 0
197 0 221 25 39 38 32 86 -16 110 -22 12 -68 15 -206 14 -98 0 -188 -4 -200
-9z"/>
<path d="M739 409 c-25 -9 -49 -45 -49 -73 0 -7 9 -25 21 -40 l20 -26 290 0
c276 0 290 1 309 20 25 25 26 71 1 101 l-19 24 -274 2 c-160 1 -284 -2 -299
-8z"/>
<path d="M2283 413 c-50 -10 -70 -86 -33 -123 19 -19 33 -20 309 -20 l290 0
20 26 c12 15 21 33 21 40 0 29 -25 64 -53 74 -29 10 -505 13 -554 3z"/>
<path d="M3815 411 c-49 -21 -64 -83 -30 -121 17 -19 30 -20 307 -20 275 0
289 1 308 20 27 27 26 81 -1 106 -19 18 -41 19 -293 21 -149 1 -280 -2 -291
-6z"/>
</g>
</svg>
