<?xml version="1.0" encoding="UTF-8"?>
<svg id="Camada_1" data-name="Camada 1" xmlns="http://www.w3.org/2000/svg" viewBox="0 0 174.55 191">
  <defs>
    <style>
      .cls-1 {
        fill: #132190;
      }
    </style>
  </defs>
  <path class="cls-1" d="m168.99,127.67h-22.83c5.63-9.89,8.85-21.32,8.85-33.5,0-11.07-2.66-21.52-7.37-30.75l.46-.08h21.5c4.84,0,6.8-6.5,2.83-9.27L94.29,2.2c-4.21-2.94-9.81-2.94-14.03,0L2.13,54.06c-3.97,2.77-2.01,9.27,2.83,9.27h21.55l.41.07c-4.72,9.23-7.38,19.69-7.38,30.77,0,12.18,3.22,23.61,8.85,33.49h-.09s-23.35,0-23.35,0c-4.84,0-6.8,6.5-2.83,9.27l78.13,51.86c4.21,2.94,9.81,2.94,14.03,0l78.13-51.86c3.97-2.77,2.01-9.27-2.83-9.27m-61.51,8.51c-.28.69-1.28.62-1.45-.11-2.06-8.67-8.34-16.88-19.16-16.88s-17.1,8.2-19.16,16.88c-.17.73-1.17.8-1.46.11-1.07-2.61-1.66-5.47-1.66-8.46,0-12.3,9.97-22.27,22.28-22.27s22.21,9.87,22.27,22.16c.01,3.04-.58,5.93-1.66,8.57m17.64-9.47c-1.5,3.56-3.52,6.75-5.94,9.51-.89,1.02-2.55.04-2.07-1.23l.04-.11c5.31-15.34-2.25-32.33-17.58-38.67-15.33-6.34-32.85.29-40.11,14.83l-.04.09c-.57,1.23-2.44.75-2.33-.59.28-3.65,1.14-7.31,2.64-10.87,7.53-17.88,28.28-26.32,46.34-18.86,18.06,7.47,26.59,28.02,19.06,45.9m13.77-23.72c-.28,2.04-3.22,2.08-3.56.05-.5-2.92-1.31-5.84-2.44-8.71-8.82-22.27-35.44-34.12-57.78-25.45-22.34,8.67-31.95,34.57-23.13,56.85,1.14,2.87,2.55,5.55,4.19,8.03,1.14,1.72-1.05,3.66-2.65,2.36-6.76-5.51-12.24-12.76-15.67-21.42-10.66-26.94,2.59-57.28,29.61-67.76,27.02-10.48,57.57,2.85,68.24,29.79,3.43,8.66,4.38,17.67,3.21,26.26"/>
</svg>